<svg xmlns="http://www.w3.org/2000/svg" width="256" height="256" viewBox="0 0 100 100"><rect width="100" height="100" rx="20" fill="#3e3e3e"></rect><path fill="#fff" d="M56.93 23.49L56.93 23.49Q47.53 23.49 42.37 30.56Q37.22 37.62 37.22 50.24L37.22 50.24Q37.22 76.51 56.93 76.51L56.93 76.51Q65.20 76.51 76.96 72.37L76.96 72.37L76.96 86.34Q67.29 90.36 55.37 90.36L55.37 90.36Q38.24 90.36 29.16 79.97Q20.08 69.58 20.08 50.13L20.08 50.13Q20.08 37.89 24.54 28.68Q29.00 19.47 37.35 14.55Q45.70 9.64 56.93 9.64L56.93 9.64Q68.37 9.64 79.92 15.17L79.92 15.17L74.55 28.70Q70.14 26.61 65.68 25.05Q61.23 23.49 56.93 23.49Z"></path></svg>